<svg xmlns="http://www.w3.org/2000/svg" width="148.01" height="31.525" viewBox="0 0 148.01 31.525">
  <g id="bancks" transform="translate(-1312 -5221.237)">
    <path id="Icon_awesome-cc-visa" data-name="Icon awesome-cc-visa" d="M33.054,16.263s.534,2.616.654,3.164H31.359c.232-.626,1.125-3.059,1.125-3.059-.014.021.232-.64.373-1.048l.2.942ZM40.5,5.625v24.75a3.376,3.376,0,0,1-3.375,3.375H3.375A3.376,3.376,0,0,1,0,30.375V5.625A3.376,3.376,0,0,1,3.375,2.25h33.75A3.376,3.376,0,0,1,40.5,5.625ZM10.723,23.288l4.444-10.913H12.178L9.415,19.828l-.3-1.512L8.128,13.3a1.176,1.176,0,0,0-1.28-.921H2.3l-.049.218a11.158,11.158,0,0,1,2.967,1.2l2.517,9.492Zm6.638.014,1.772-10.927H16.305L14.541,23.3h2.82ZM27.2,19.73c.014-1.245-.745-2.194-2.37-2.974-.991-.5-1.6-.837-1.6-1.35.014-.464.513-.942,1.624-.942a4.845,4.845,0,0,1,2.1.415l.253.12.387-2.363a7.022,7.022,0,0,0-2.531-.464c-2.791,0-4.753,1.491-4.767,3.614-.021,1.568,1.406,2.44,2.475,2.967,1.09.534,1.462.886,1.462,1.357-.014.731-.886,1.069-1.695,1.069a5.632,5.632,0,0,1-2.651-.584l-.373-.176-.394,2.454a8.628,8.628,0,0,0,3.15.584C25.242,23.463,27.176,21.994,27.2,19.73ZM37.125,23.3,34.847,12.375H32.66a1.391,1.391,0,0,0-1.477.907l-4.2,10.02h2.967s.485-1.35.591-1.638h3.628c.084.387.338,1.638.338,1.638Z" transform="translate(1312 5218.987)" fill="#b4b4b4"/>
    <path id="Icon_awesome-cc-mastercard" data-name="Icon awesome-cc-mastercard" d="M33.954,28.849a.788.788,0,1,1-.787-.823A.786.786,0,0,1,33.954,28.849ZM12.1,28.027a.825.825,0,1,0,.766.823A.778.778,0,0,0,12.1,28.027Zm8.262-.021a.652.652,0,0,0-.668.612h1.343A.646.646,0,0,0,20.363,28.005Zm7.58.021a.823.823,0,1,0,.788.823A.778.778,0,0,0,27.942,28.027Zm7.446,1.835c0,.021.021.035.021.077,0,.021-.021.035-.021.077a.247.247,0,0,0-.035.056.091.091,0,0,1-.077.035c-.021.021-.035.021-.077.021a.139.139,0,0,1-.077-.021c-.021,0-.035-.021-.056-.035s-.035-.035-.035-.056a.128.128,0,0,1-.021-.077c0-.035,0-.056.021-.077a.132.132,0,0,1,.035-.077.247.247,0,0,1,.056-.035.128.128,0,0,1,.077-.021c.035,0,.056,0,.077.021s.056.021.077.035S35.367,29.827,35.388,29.862Zm-.155.1c.035,0,.035-.021.056-.021a.086.086,0,0,0,0-.112c-.021,0-.035-.021-.077-.021H35.1v.246h.056v-.1h.021l.077.1h.056l-.077-.091ZM40.5,5.7v24.75a3.376,3.376,0,0,1-3.375,3.375H3.375A3.376,3.376,0,0,1,0,30.445V5.7A3.376,3.376,0,0,1,3.375,2.32h33.75A3.376,3.376,0,0,1,40.5,5.7Zm-36,9.816a9.734,9.734,0,0,0,15.117,8.114,10.486,10.486,0,0,1,0-16.207A9.734,9.734,0,0,0,4.5,15.511Zm15.75,7.65a9.735,9.735,0,0,0,0-15.293A9.735,9.735,0,0,0,20.25,23.161ZM10.245,28.526a.985.985,0,0,0-1.034-1.034,1,1,0,0,0-.9.457.932.932,0,0,0-.858-.457.893.893,0,0,0-.745.38v-.309H6.131v2.58h.577c0-1.329-.176-2.123.633-2.123.717,0,.577.717.577,2.123h.555c0-1.287-.176-2.123.633-2.123.717,0,.577.7.577,2.123h.577V28.526Zm3.157-.963h-.555v.309a1.013,1.013,0,0,0-.823-.38,1.359,1.359,0,0,0,0,2.714.975.975,0,0,0,.823-.38v.323H13.4Zm2.848,1.8c0-1.055-1.61-.577-1.61-1.069,0-.4.837-.337,1.3-.077l.232-.457c-.661-.429-2.123-.422-2.123.577s1.61.584,1.61,1.055c0,.443-.949.408-1.455.056l-.246.443C14.745,30.424,16.249,30.312,16.249,29.362Zm2.489.654-.155-.478c-.267.148-.858.309-.858-.288V28.083h.921v-.52h-.921v-.788h-.577v.788h-.534v.513h.534V29.25c0,1.237,1.216,1.013,1.589.766Zm.935-.942h1.934c0-1.139-.52-1.589-1.223-1.589a1.266,1.266,0,0,0-1.28,1.357,1.4,1.4,0,0,0,2.377,1l-.267-.422c-.548.45-1.378.408-1.54-.345Zm4.155-1.512a.825.825,0,0,0-1.069.309v-.309h-.577v2.58h.577V28.688a.587.587,0,0,1,.9-.591l.169-.534Zm.745,1.287c0-.8.816-1.062,1.455-.591L26.3,27.8a1.392,1.392,0,1,0,0,2.109l-.267-.457C25.383,29.911,24.574,29.637,24.574,28.849Zm4.69-1.287h-.577v.309a1.278,1.278,0,1,0,0,1.955v.323h.577V27.563Zm2.37,0a.845.845,0,0,0-1.069.309v-.309h-.555v2.58h.555V28.688a.59.59,0,0,1,.9-.591l.169-.534Zm2.834-1.048h-.555v1.357a1.278,1.278,0,1,0,0,1.955v.323h.555ZM35,21.234v.323h.056v-.323h.134v-.056h-.323v.056H35Zm.464,8.7a.214.214,0,0,0-.021-.112c-.021-.021-.035-.056-.056-.077s-.056-.035-.077-.056c-.035,0-.077-.021-.112-.021a.747.747,0,0,1-.1.021.367.367,0,0,0-.077.056.11.11,0,0,0-.056.077.214.214,0,0,0-.021.112.2.2,0,0,0,.021.1.11.11,0,0,0,.056.077.244.244,0,0,0,.077.056.191.191,0,0,0,.1.021.214.214,0,0,0,.112-.021c.021-.021.056-.035.077-.056s.035-.056.056-.077A.2.2,0,0,0,35.466,29.939Zm.225-8.768h-.1l-.112.246-.112-.246h-.1v.38h.056v-.288l.112.246h.077l.1-.246v.288h.077ZM36,15.511a9.734,9.734,0,0,0-15.117-8.1,10.486,10.486,0,0,1,0,16.207A9.734,9.734,0,0,0,36,15.511Z" transform="translate(1365.745 5218.942)" fill="#b4b4b4"/>
    <path id="Icon_awesome-cc-amex" data-name="Icon awesome-cc-amex" d="M22.859,11.8c0-1.153-.991-1.294-1.927-1.294l-2.749-.021v4.873h1.153V13.591H20.6c1.294,0,1.02.724,1.041,1.765h1.167v-.949c0-.647-.105-1.062-.773-1.294a1.384,1.384,0,0,0,.823-1.315Zm-2.067.795H19.336V11.517h1.477c.359,0,.752.07.752.52s-.373.555-.773.555Zm-1.174,6.293H15.912l-1.477,1.6-1.441-1.6H8.318l-.007,4.873h4.6l1.5-1.617,1.434,1.617h2.264l.007-1.638c1.329,0,3.466.323,3.466-1.638,0-1.216-.865-1.6-1.962-1.6Zm-7.3,3.846H9.464v-.97h2.552V20.77H9.464v-.879H12.4l1.259,1.42Zm4.627.577-1.779-1.976,1.779-1.927Zm2.658-2.18H18.112V19.891h1.512c.394,0,.717.162.717.591,0,.45-.323.647-.738.647Zm-2.222-9.612V10.491h-3.9v4.873h3.9V14.358H14.646v-.97H17.3V12.4H14.646v-.879ZM40.5,17.958h-.014ZM26.817,20.2c0-1.153-.991-1.315-1.905-1.315h-2.77l-.007,4.873H23.3l.007-1.779h1.237c.773,0,1.041.141,1.041.97l-.007.809h1.167l.007-.97c0-.626-.127-1.062-.773-1.294a1.391,1.391,0,0,0,.837-1.294Zm-2.053.788H23.309v-1.1h1.477c.359,0,.752.07.752.52,0,.485-.38.577-.773.577Zm-12.15-5.625V10.491H10.673L9.288,13.8l-1.526-3.3H5.857v4.62l-1.976-4.62H2.159L.07,15.363H1.329l.45-1.076H4.2l.45,1.076H7.031V11.552l1.688,3.811H9.745l1.687-3.811v3.811ZM2.194,13.275l.787-1.941.809,1.941ZM35.761,24.448v-.316c-.759.394-.274.316-11.018.316,0-1.772.007-1.68,0-1.772-.12-.007-.225-.007-.661-.007,0,1.259-.007.478-.007,1.779H21.291c0-.851.007-1.076.007-2.053a4.555,4.555,0,0,1-2.412.436c0,1.034-.007.584-.007,1.617H15.441c-.359-.4-.19-.218-1.083-1.223-.225.246-.9.977-1.132,1.223H7.46v-6.49H13.3c.352.394.2.218,1.09,1.209.225-.246.858-.942,1.1-1.209h4.078a3.357,3.357,0,0,1,1.709.394v-.394c3.818,0,4.521-.1,5.323.359v-.359h5.5v.366c.8-.485,1.378-.366,4.563-.366v.352c.724-.415,1.167-.366,3.818-.352V5.625A3.376,3.376,0,0,0,37.111,2.25H3.361A3.376,3.376,0,0,0-.014,5.625v7.72c.661-1.54,1.385-3.234,1.624-3.79H4.4c.3.71.113.26.633,1.484V9.555H8.269c.2.436.78,1.688.977,2.109.408-.956.71-1.68.886-2.109h7.242c0-.007.809,0,.816,0,3.073.014,3.769-.056,4.528.373V9.555h2.805v.654a3.363,3.363,0,0,1,2.159-.654h1.941c0,.035.134.021.162.021h2.278c.3.689.183.422.619,1.448V9.577h3.045c.345.563-.07-.127.787,1.294V9.577h2.805v6.469H36.394c-.38-.633-.1-.155-.928-1.54v1.54H31.753c-.45-1.041-.007-.021-.464-1.076H29.953c-.3.7-.155.366-.45,1.076H27.619a3.269,3.269,0,0,1-2.088-.626v.626H20.855c-.021-.977-.007-1.744-.007-1.744a5.019,5.019,0,0,0-.689-.014v1.765H10.631v-.8c-.176.394-.19.415-.359.8H8.2c-.281-.626-.2-.45-.359-.8v.8H4.12c-.3-.71-.155-.373-.45-1.076H2.32c-.3.7-.155.366-.45,1.076H0V30.375A3.376,3.376,0,0,0,3.375,33.75H37.132a3.376,3.376,0,0,0,3.375-3.375V24.019C39.614,24.6,38.208,24.448,35.761,24.448Zm2.552-4.535H40.43V18.886H38.116a1.476,1.476,0,0,0-1.673,1.455c0,2.32,3,.9,3,1.927,0,.359-.3.45-.591.45H36.6L36.6,23.759h2.25a1.843,1.843,0,0,0,1.582-.626V21.319c-.738-.97-2.763-.091-2.763-.949,0-.408.323-.457.647-.457Zm-4.008,2.8H32.041l-.007,1.041H34.3c1.041,0,1.842-.394,1.842-1.547,0-2.334-3.016-.788-3.016-1.849,0-.394.345-.45.647-.45h2.138V18.879H33.574a1.458,1.458,0,0,0-1.652,1.455c0,2.32,3,.879,3,1.927-.007.38-.33.45-.619.45Zm-2.967-2.82V18.886H27.457l-.007,4.873h3.881l.007-1.005-2.714-.021v-.97h2.665V20.77H28.631v-.879Zm-3.959-7.6c-.021.014-.1.155-.1.534,0,.422.063.541.077.555a.554.554,0,0,0,.239.035l.513-1.188c-.077,0-.148-.007-.218-.007C27.5,12.22,27.4,12.27,27.38,12.291Zm1.434-.738h-.007Zm-1.139-1.069c-1.652,0-2.391.844-2.391,2.482,0,1.561.717,2.391,2.32,2.391h1.35l.45-1.076h2.412l.464,1.076h2.37V11.707l2.194,3.649H38.5V10.5H37.315v3.382L35.269,10.5H33.49v4.6l-1.962-4.6H29.784l-1.652,3.832h-.52c-.935,0-1.132-.57-1.132-1.4,0-1.673,1.1-1.406,2.327-1.385V10.484Zm2.96.851.788,1.941h-1.6Zm-7.109-.844v4.873h1.188V10.491Z" transform="translate(1419.503 5219.013)" fill="#b4b4b4"/>
  </g>
</svg>
