<svg id="Icon_feather-instagram" data-name="Icon feather-instagram" xmlns="http://www.w3.org/2000/svg" width="34.5" height="34.5" viewBox="0 0 34.5 34.5">
  <path id="Path_571" data-name="Path 571" d="M10.5,1.5h15a9.01,9.01,0,0,1,9,9v15a9.01,9.01,0,0,1-9,9h-15a9.01,9.01,0,0,1-9-9v-15A9.01,9.01,0,0,1,10.5,1.5Zm15,30a6.007,6.007,0,0,0,6-6v-15a6.007,6.007,0,0,0-6-6h-15a6.007,6.007,0,0,0-6,6v15a6.007,6.007,0,0,0,6,6Z" fill="#ea243d"/>
  <path id="Path_572" data-name="Path 572" d="M18.063,10.435a7.539,7.539,0,0,1,1.1.081,7.5,7.5,0,0,1,2.272,14.118,7.533,7.533,0,0,1-3.37.8,7.5,7.5,0,0,1,0-15Zm0,12a4.5,4.5,0,1,0-3.184-1.318A4.473,4.473,0,0,0,18.067,22.435Z" fill="#ea243d"/>
  <path id="Path_573" data-name="Path 573" fill="#ea243d"/>
</svg>
