<svg xmlns="http://www.w3.org/2000/svg" width="19.117" height="14.367" viewBox="0 0 19.117 14.367">
  <g id="Icon_feather-eye" data-name="Icon feather-eye" transform="translate(-0.65 -5.15)">
    <path id="Path_549" data-name="Path 549" d="M10.209,5.15a9.724,9.724,0,0,1,7.053,3.435,15.8,15.8,0,0,1,2.416,3.368.85.85,0,0,1,0,.76,15.8,15.8,0,0,1-2.416,3.368,9.724,9.724,0,0,1-7.053,3.435,9.724,9.724,0,0,1-7.053-3.435A15.8,15.8,0,0,1,.74,12.714a.85.85,0,0,1,0-.76A15.8,15.8,0,0,1,3.156,8.585,9.724,9.724,0,0,1,10.209,5.15Zm7.738,7.184a14.8,14.8,0,0,0-1.955-2.617A7.958,7.958,0,0,0,10.209,6.85C6,6.85,3.23,11.034,2.471,12.333a14.8,14.8,0,0,0,1.955,2.617,7.958,7.958,0,0,0,5.783,2.866C14.419,17.817,17.188,13.634,17.946,12.334Z" fill="#b4b4b4"/>
    <path id="Path_550" data-name="Path 550" d="M15.875,19.1A3.225,3.225,0,1,1,19.1,15.875,3.229,3.229,0,0,1,15.875,19.1Zm0-4.75A1.525,1.525,0,1,0,17.4,15.875,1.527,1.527,0,0,0,15.875,14.35Z" transform="translate(-5.666 -3.541)" fill="#b4b4b4"/>
  </g>
</svg>
