<svg xmlns="http://www.w3.org/2000/svg" width="29.5" height="29.5" viewBox="0 0 29.5 29.5">
  <g id="Icon_feather-search" data-name="Icon feather-search" transform="translate(-3.25 -3.25)">
    <path id="Path_542" data-name="Path 542" d="M16.5,3.25a13.25,13.25,0,0,1,9.369,22.619A13.25,13.25,0,0,1,7.131,7.131,13.163,13.163,0,0,1,16.5,3.25Zm0,24A10.75,10.75,0,1,0,5.75,16.5,10.762,10.762,0,0,0,16.5,27.25Z" fill="#ea243d"/>
    <path id="Path_543" data-name="Path 543" d="M31.5,32.75a1.246,1.246,0,0,1-.884-.366l-6.525-6.525a1.25,1.25,0,0,1,1.768-1.768l6.525,6.525A1.25,1.25,0,0,1,31.5,32.75Z" fill="#ea243d"/>
  </g>
</svg>
