<svg xmlns="http://www.w3.org/2000/svg" width="27.75" height="30.906" viewBox="0 0 27.75 30.906">
  <g id="Icon_feather-user" data-name="Icon feather-user" transform="translate(-4.75 -3.25)">
    <path id="Path_547" data-name="Path 547" d="M31.25,33.219A1.25,1.25,0,0,1,30,31.969V28.813a5.068,5.068,0,0,0-5.063-5.063H12.313A5.063,5.063,0,0,0,7.25,28.813v3.156a1.25,1.25,0,0,1-2.5,0V28.813a7.563,7.563,0,0,1,7.563-7.563H24.938A7.571,7.571,0,0,1,32.5,28.813v3.156A1.25,1.25,0,0,1,31.25,33.219Z" transform="translate(0 0.938)" fill="#ea243d"/>
    <path id="Path_548" data-name="Path 548" d="M18.313,3.25a7.563,7.563,0,1,1-7.562,7.563A7.571,7.571,0,0,1,18.313,3.25Zm0,12.625a5.063,5.063,0,1,0-5.062-5.062A5.068,5.068,0,0,0,18.313,15.875Z" transform="translate(0.313)" fill="#ea243d"/>
  </g>
</svg>
