<svg xmlns="http://www.w3.org/2000/svg" width="28.083" height="28.255" viewBox="0 0 28.083 28.255">
  <g id="Icon_feather-shopping-bag" data-name="Icon feather-shopping-bag" transform="translate(-3.35 -1.85)">
    <path id="Path_544" data-name="Path 544" d="M8.8,1.85H25.985a1.15,1.15,0,0,1,.886.417l4.3,5.191a1.15,1.15,0,0,1,.264.733V26.36a3.892,3.892,0,0,1-4.015,3.746H7.365A3.892,3.892,0,0,1,3.35,26.36V8.191a1.15,1.15,0,0,1,.264-.733l4.3-5.191A1.15,1.15,0,0,1,8.8,1.85Zm16.647,2.3H9.338L5.65,8.605V26.36a1.6,1.6,0,0,0,1.715,1.446H27.418a1.6,1.6,0,0,0,1.715-1.446V8.605Z" transform="translate(0 0)" fill="#ea243d"/>
    <path id="Path_545" data-name="Path 545" d="M30.282,10.15H4.5a1.15,1.15,0,1,1,0-2.3H30.282a1.15,1.15,0,1,1,0,2.3Z" transform="translate(0 -0.809)" fill="#ea243d"/>
    <path id="Path_546" data-name="Path 546" d="M17.729,21.615A6.759,6.759,0,0,1,10.85,15a1.15,1.15,0,1,1,2.3,0,4.458,4.458,0,0,0,4.579,4.315A4.458,4.458,0,0,0,22.309,15a1.15,1.15,0,1,1,2.3,0A6.759,6.759,0,0,1,17.729,21.615Z" transform="translate(-0.338 -1.755)" fill="#ea243d"/>
  </g>
</svg>
