<svg id="logo" xmlns="http://www.w3.org/2000/svg" xmlns:xlink="http://www.w3.org/1999/xlink" width="181.534" height="58.791" viewBox="0 0 181.534 58.791">
  <defs>
    <clipPath id="clip-path">
      <rect id="Rectangle_1239" data-name="Rectangle 1239" width="181.534" height="58.791" fill="none"/>
    </clipPath>
  </defs>
  <g id="Group_227" data-name="Group 227" clip-path="url(#clip-path)">
    <path id="Path_527" data-name="Path 527" d="M635.54,60.577l.176,4.861h-.428a11.369,11.369,0,0,0-.654-2.018,2.758,2.758,0,0,0-1.026-1.218,3.386,3.386,0,0,0-1.811-.418h-4.378V70.9h3.492a3.186,3.186,0,0,0,2.279-.694,3.115,3.115,0,0,0,.835-2.048h.423v6.365h-.423a2.5,2.5,0,0,0-1.077-1.927,4.031,4.031,0,0,0-2.038-.488h-3.492v6.254q0,2.71,2.8,2.712h1.324a5.71,5.71,0,0,0,2.189-.352,3.073,3.073,0,0,0,1.4-1.217,9.3,9.3,0,0,0,.991-2.445h.428l-.322,5.223H619.876v-.428c1.142,0,1.877-.257,2.209-.775a3.65,3.65,0,0,0,.5-2.028V63.848a4.085,4.085,0,0,0-.458-2.018c-.3-.548-1.007-.825-2.109-.825h-.146v-.428Z" transform="translate(-456.599 -44.621)" fill="#313132"/>
    <path id="Path_528" data-name="Path 528" d="M525.307,60.577v.428a3.936,3.936,0,0,0-2.058.921,8.411,8.411,0,0,0-1.776,3.341l-6.164,17.259h-.574l-7.4-18.648a5.158,5.158,0,0,0-1.3-2.093,3.731,3.731,0,0,0-2.249-.78v-.428H513.7v.428a3.6,3.6,0,0,0-1.193.241c-.307.136-.458.463-.458,1a4.36,4.36,0,0,0,.382,1.515l4.232,10.708,3.376-9.485a5.947,5.947,0,0,0,.428-2.048,2.245,2.245,0,0,0-.4-1.147,2.3,2.3,0,0,0-1.8-.78v-.428Z" transform="translate(-371.084 -44.621)" fill="#313132"/>
    <path id="Path_529" data-name="Path 529" d="M391.035,70.493a28.456,28.456,0,0,0,.332,4.358,8.987,8.987,0,0,0,1.716,4.01,4.868,4.868,0,0,0,4.172,1.867q3.9,0,5-3.15a19.415,19.415,0,0,0,1.1-6.421,24.334,24.334,0,0,0-.443-4.775,8.133,8.133,0,0,0-1.806-3.814,4.794,4.794,0,0,0-3.849-1.585,4.919,4.919,0,0,0-4.177,1.807,8.534,8.534,0,0,0-1.711,3.839,24.077,24.077,0,0,0-.332,3.864m-5.163.282a11.891,11.891,0,0,1,.76-4.232A10.107,10.107,0,0,1,388.866,63a10.262,10.262,0,0,1,3.573-2.375,13.766,13.766,0,0,1,9.54.015,10.2,10.2,0,0,1,5.787,5.942,12.664,12.664,0,0,1,.02,8.529,10.547,10.547,0,0,1-2.144,3.527,9.927,9.927,0,0,1-3.563,2.415,12.66,12.66,0,0,1-4.856.885,12.117,12.117,0,0,1-5.092-1,9.972,9.972,0,0,1-3.552-2.632,10.986,10.986,0,0,1-2.043-3.613,12.216,12.216,0,0,1-.664-3.92" transform="translate(-284.232 -44.03)" fill="#313132"/>
    <path id="Path_530" data-name="Path 530" d="M300.831,82.285H284.3v-.427c1.127,0,1.857-.252,2.189-.76a3.709,3.709,0,0,0,.493-2.038V63.813a3.144,3.144,0,0,0-.614-2.113A2.623,2.623,0,0,0,284.3,61v-.422h10.255V61a2.557,2.557,0,0,0-2.219.76,3.578,3.578,0,0,0-.523,2.053V78.335a3.391,3.391,0,0,0,.518,2.043,2.378,2.378,0,0,0,2.018.7h1.5a5.721,5.721,0,0,0,2.888-.78q1.359-.785,2.416-3.628h.427Z" transform="translate(-209.412 -44.622)" fill="#313132"/>
    <path id="Path_531" data-name="Path 531" d="M648.31,165.815h-.271a4.883,4.883,0,0,0-1.8-2.316,4.987,4.987,0,0,0-2.953-.891,3.927,3.927,0,0,0-2.17.56,3.838,3.838,0,0,0-1.349,1.486,6.956,6.956,0,0,0-.665,2.011,13.5,13.5,0,0,0-.188,2.285,7.58,7.58,0,0,0,1.19,4.582,3.789,3.789,0,0,0,3.2,1.6c.964,0,1.565-.143,1.81-.43a1.92,1.92,0,0,0,.363-1.266v-1.588a4.357,4.357,0,0,0-.073-.837,1.308,1.308,0,0,0-.388-.668,1.45,1.45,0,0,0-.945-.341v-.289h5.721V170a1.354,1.354,0,0,0-1.26,1.54v3.347a11.837,11.837,0,0,1-4.98,1.005,12.3,12.3,0,0,1-2.027-.153,8.315,8.315,0,0,1-1.616-.43,6.115,6.115,0,0,1-1.193-.6,6.86,6.86,0,0,1-.916-.722,6.7,6.7,0,0,1-1.047-1.285,6.9,6.9,0,0,1-.757-1.693,7.314,7.314,0,0,1-.293-2.119,7.105,7.105,0,0,1,.554-2.844,6.584,6.584,0,0,1,1.572-2.234,7.052,7.052,0,0,1,2.329-1.442,7.8,7.8,0,0,1,2.765-.493,7.935,7.935,0,0,1,1.416.111q.6.11,2,.484a3.069,3.069,0,0,0,.971.15q.548,0,.725-.725h.271Z" transform="translate(-468.258 -119.242)" fill="#df042e"/>
    <path id="Path_532" data-name="Path 532" d="M583.1,169.69h3.423l-1.772-4.62Zm3.621-7.808,4.617,11.874a2.707,2.707,0,0,0,.875,1.254,3.1,3.1,0,0,0,1.241.461v.27h-6.51v-.27c.888-.051,1.333-.328,1.333-.84a1.84,1.84,0,0,0-.041-.337c-.029-.146-.067-.3-.111-.468s-.076-.264-.089-.3l-1.149-2.917h-4.1l-.98,2.806a2.652,2.652,0,0,0-.188.913.9.9,0,0,0,.372.852,2.47,2.47,0,0,0,.888.293v.27h-4.124v-.27a2.034,2.034,0,0,0,1.2-.6,5.287,5.287,0,0,0,1.082-1.97l3.9-11.018Z" transform="translate(-426.307 -119.242)" fill="#df042e"/>
    <path id="Path_533" data-name="Path 533" d="M533.662,163.153h-.951v5.517h.951a4.4,4.4,0,0,0,2.049-.509q.988-.506.99-2.316a2.7,2.7,0,0,0-.84-2.1,1.9,1.9,0,0,0-.764-.442,5.032,5.032,0,0,0-1.435-.153m.092,6.281H532.71v4.391c0,.665.165,1.085.493,1.263a2.683,2.683,0,0,0,1.26.264,6.915,6.915,0,0,0,.951-.064,2.78,2.78,0,0,0,.923-.328,2.073,2.073,0,0,0,.8-.862,3.4,3.4,0,0,0,.328-1.626,2.992,2.992,0,0,0-.49-1.807,2.592,2.592,0,0,0-1.317-.951,5.911,5.911,0,0,0-1.9-.28m2.472,6.682H527.96v-.27c.719,0,1.183-.163,1.387-.484a2.359,2.359,0,0,0,.309-1.285v-9.638a2.686,2.686,0,0,0-.274-1.256c-.185-.347-.621-.522-1.311-.522h-.111v-.27h7.156a7.354,7.354,0,0,1,2.367.324,5.588,5.588,0,0,1,1,.532,3.612,3.612,0,0,1,.958.97,2.528,2.528,0,0,1,.433,1.483,2.464,2.464,0,0,1-.63,1.76,3.6,3.6,0,0,1-1.4.951,10.013,10.013,0,0,1-1.486.42v.035a10.644,10.644,0,0,1,1.317.226,5.549,5.549,0,0,1,1.419.541,3.354,3.354,0,0,1,1.171,1.085,3.13,3.13,0,0,1,.484,1.795,3.267,3.267,0,0,1-.582,1.951,3.924,3.924,0,0,1-1.552,1.272,3.315,3.315,0,0,1-1.1.325,12.15,12.15,0,0,1-1.285.057" transform="translate(-388.894 -119.616)" fill="#df042e"/>
    <path id="Path_534" data-name="Path 534" d="M453.873,161.918h9.6a3.114,3.114,0,0,0,1.1-.169h.271l.073,3.22h-.261a2.876,2.876,0,0,0-.694-1.8,1.869,1.869,0,0,0-1.2-.388H460.2V173.6a3.083,3.083,0,0,0,.121.92,1.14,1.14,0,0,0,.493.614,2.048,2.048,0,0,0,1.092.239v.267h-6.465v-.267c.713,0,1.177-.163,1.387-.484a2.314,2.314,0,0,0,.318-1.289V162.777H454.58a1.431,1.431,0,0,0-1.063.414,4.5,4.5,0,0,0-.8,1.779h-.287l.073-3.22h.271a3.114,3.114,0,0,0,1.1.169" transform="translate(-333.258 -119.144)" fill="#df042e"/>
    <path id="Path_535" data-name="Path 535" d="M403.182,169.69h3.424l-1.772-4.62Zm3.621-7.808,4.617,11.874a2.707,2.707,0,0,0,.875,1.254,3.1,3.1,0,0,0,1.241.461v.27h-6.51v-.27c.887-.051,1.333-.328,1.333-.84a1.839,1.839,0,0,0-.041-.337c-.029-.146-.067-.3-.111-.468s-.076-.264-.089-.3l-1.149-2.917h-4.1l-.98,2.806a2.657,2.657,0,0,0-.188.913.9.9,0,0,0,.372.852,2.469,2.469,0,0,0,.888.293v.27h-4.124v-.27a2.034,2.034,0,0,0,1.2-.6,5.284,5.284,0,0,0,1.082-1.97l3.9-11.018Z" transform="translate(-293.782 -119.242)" fill="#df042e"/>
    <path id="Path_536" data-name="Path 536" d="M339.832,168.537h6.491v-4.082a2.674,2.674,0,0,0-.28-1.273c-.185-.35-.627-.525-1.324-.525h-.092v-.267h6.446v.267c-.719,0-1.184.165-1.387.493a2.437,2.437,0,0,0-.309,1.3v9.622a3.808,3.808,0,0,0,.083.818,1.232,1.232,0,0,0,.439.662,1.682,1.682,0,0,0,1.082.293h.092v.267h-6.446v-.267c.725,0,1.19-.162,1.394-.484a2.432,2.432,0,0,0,.3-1.289v-4.623h-6.491v4.623a3.88,3.88,0,0,0,.083.827,1.193,1.193,0,0,0,.439.655,1.683,1.683,0,0,0,1.082.29h.092v.267h-6.446v-.267c.719,0,1.184-.162,1.387-.484a2.371,2.371,0,0,0,.309-1.289v-9.622a2.654,2.654,0,0,0-.283-1.276c-.191-.347-.63-.522-1.321-.522h-.092v-.267h6.446v.267c-.706,0-1.168.162-1.378.49a2.354,2.354,0,0,0-.318,1.308Z" transform="translate(-246.821 -119.616)" fill="#df042e"/>
    <path id="Path_537" data-name="Path 537" d="M285.735,161.918h9.6a3.115,3.115,0,0,0,1.1-.169h.271l.073,3.22h-.261a2.875,2.875,0,0,0-.694-1.8,1.869,1.869,0,0,0-1.2-.388h-2.565V173.6a3.083,3.083,0,0,0,.121.92,1.139,1.139,0,0,0,.493.614,2.048,2.048,0,0,0,1.092.239v.267H287.3v-.267c.713,0,1.177-.163,1.387-.484a2.316,2.316,0,0,0,.318-1.289V162.777h-2.564a1.431,1.431,0,0,0-1.063.414,4.5,4.5,0,0,0-.8,1.779h-.286l.073-3.22h.271a3.114,3.114,0,0,0,1.1.169" transform="translate(-209.408 -119.144)" fill="#df042e"/>
    <path id="Path_538" data-name="Path 538" d="M23.283,56.55q-.237-.095-.479-.178m3.961,2.473q-.1-.1-.194-.188c-.065-.062-.131-.123-.2-.183s-.134-.118-.2-.176h0c-.068-.058-.135-.115-.2-.17s-.138-.111-.208-.164-.14-.106-.211-.158h0l-.215-.152-.217-.146h0q-.11-.072-.22-.14h0l-.223-.134h0c-.15-.088-.3-.171-.454-.25h0c-.076-.04-.153-.079-.23-.117h0c-.077-.038-.155-.075-.232-.11h0q-.234-.107-.472-.2h0q-.237-.095-.479-.178h0q-.121-.041-.242-.08c-.081-.026-.163-.051-.244-.074h0c-.082-.024-.164-.047-.245-.068s-.164-.043-.246-.062h0l-.248-.057h0c-.083-.018-.166-.034-.249-.05h0l-.249-.045h0l-.251-.038h0c-.083-.012-.167-.022-.251-.032s-.168-.018-.252-.026h0c-.084-.008-.168-.015-.252-.021L19.82,55.8l-.253-.008h0c-.168,0-.337,0-.506,0l-.253.009h0c-.084,0-.169.009-.252.016h0c-.084.006-.168.013-.252.021h0c-.084.008-.168.017-.252.028s-.168.021-.251.033h0l-.25.04h0l-.249.045c-.083.016-.166.033-.249.051L16.8,56.1c-.083.02-.165.041-.247.063l-.245.069-.244.075h0q-.121.039-.242.081h0l-.24.087c-.08.03-.159.062-.238.094h0c-.079.032-.158.066-.236.1l-.235.105c-.078.036-.155.073-.233.111l-.23.117h0q-.229.12-.453.252h0l-.222.135h0q-.221.138-.436.288h0c-.144.1-.285.2-.424.312h0c-.069.054-.139.109-.207.165h0a10.192,10.192,0,0,0-.8.72,10.471,10.471,0,0,0-1.04,1.217h0q-.233.32-.439.652l-.134.223c-.044.075-.087.15-.129.225h0q-.25.454-.454.926h0l-.1.237h0c-.032.079-.062.159-.092.238h0c-.03.08-.059.16-.086.24h0q-.084.241-.155.486h0q-.107.367-.188.739h0q-.08.373-.133.749-.036.251-.059.5c-.008.084-.015.168-.02.252l-.014.253-.008.253h0l0,.253h0c0,.084,0,.169,0,.253h0l.009.253.015.253h0l.021.252h0c.008.084.017.168.027.252h0c.01.084.021.168.033.252h0l.039.25h0l.045.249h0c.016.083.033.166.051.248h0l.057.248c.02.082.041.164.063.246h0c.022.082.045.164.07.245s.049.163.075.244.053.162.081.242l.087.24.093.238h0l.1.237.105.235q.054.117.111.232l.117.23h0c.04.076.081.152.123.228s.085.151.13.225l.135.222c.046.074.093.147.141.22s.1.145.147.217.1.143.153.215.105.14.159.21l.165.208q.084.1.171.2c.058.067.117.134.177.2s.121.132.183.2.125.13.189.193l5.182,5.162L19.07,80.9l6.318,6.139.093.092.093.09.095.09.1.088.1.086h0l.1.085.1.084.1.082.1.081.1.079.1.079.1.076.1.075h0l.1.074.1.073.1.071.105.07.106.068.107.067.107.066h0l.107.064.109.063.109.062h0l.11.06.11.059h0l.11.057.111.056h0l.112.054.112.053.113.052.113.05h0l.114.049.114.047h0l.114.046h0l.115.045h0l.116.043.116.042.116.04h0l.116.04.117.037h0l.117.036.118.035h0l.118.033h0l.118.032h0l.118.03h0l.119.029.119.028h0l.119.026h0l.12.025h0l.12.023.12.022.12.021h0L31.2,90h0l.121.018.121.017.121.016h0l.121.014h0l.121.013h0l.121.011.122.01.122.009.122.006.122.006h0l.122,0h.237l.078,0h.078l.077,0,.076,0,.077,0,.076,0,.075,0,.075,0,.075,0,.074,0,.074,0,.073-.005.073-.006.073-.006.072-.006.072-.007.072-.007.072-.008h0l.071-.008.071-.009.071-.009.071-.009.07-.01.071-.011.07-.011h0l.07-.011h0l.07-.012.07-.012.07-.013.07-.013h0l.07-.014h0l.069-.014h0l.069-.015.07-.015.069-.016.07-.016.07-.017.069-.017.07-.018.069-.019.07-.019h0l.069-.02h0l.069-.021h0l.069-.021h0l.069-.022h0l.069-.022h0l.07-.023h0l.07-.023h0l.07-.024h0l.07-.025h0l.07-.026h0l.071-.026h0l.071-.027h0l.071-.028h0l.071-.028h0l.072-.029h0l.072-.029h0l.072-.03h0L37,89.283l.073-.031h0l.073-.032h0l.054-.024h0l.054-.024h0l.054-.025h0l.053-.025h0l.053-.026h0l.053-.026.053-.026.054-.027.053-.027h0l.053-.027.053-.028.053-.028.053-.028.052-.029.052-.028L38,88.793h0l.052-.029.052-.03.052-.03h0l.051-.03.052-.031.051-.031.051-.031.051-.032.05-.032.051-.032.051-.032.05-.033.05-.033.05-.033.05-.033.05-.034.049-.034.049-.034.049-.035.048-.035h0l.048-.035.048-.036.048-.036.048-.036.047-.036.047-.037h0l.047-.037h0l.047-.037.046-.037h0l.046-.037.046-.038h0l.046-.038h0l.046-.038.046-.039.045-.038.045-.039h0l.045-.04h0l.045-.04.044-.04h0l.044-.04.044-.041.044-.04.043-.041.043-.041.043-.041.043-.041.042-.042.042-.042L53.637,73.763c.064-.064.127-.129.189-.193s.123-.131.183-.2l.178-.2c.058-.067.115-.135.171-.2s.112-.138.166-.208.107-.14.159-.211l.153-.214c.05-.072.1-.144.148-.217s.1-.146.141-.22l.136-.223c.044-.075.086-.15.129-.225s.083-.151.124-.228.079-.153.117-.23.075-.155.111-.233l.105-.234.1-.236c.032-.079.062-.159.093-.239l.087-.24q.042-.121.081-.242l.075-.244.07-.245c.022-.082.043-.164.063-.246l.057-.248.052-.249c.016-.083.031-.166.045-.249s.028-.167.04-.251.023-.167.033-.251l.027-.252.022-.252q.009-.126.015-.253l.01-.253c0-.084,0-.169,0-.253h0l0-.253-.008-.253h0c0-.085-.009-.168-.014-.252l-.02-.253-.027-.251h0c-.009-.084-.021-.168-.032-.251l-.039-.25h0c-.014-.083-.028-.166-.045-.249l-.05-.249h0l-.056-.248c-.02-.082-.041-.164-.063-.247s-.044-.164-.068-.245-.049-.163-.075-.244-.053-.161-.081-.242h0l-.086-.241c-.03-.08-.061-.159-.092-.239l-.1-.237h0l-.1-.235h0c-.036-.078-.073-.156-.111-.233l-.116-.23c-.04-.076-.081-.153-.122-.228h0l-.129-.225h0c-.044-.075-.089-.149-.135-.223h0q-.068-.111-.141-.22h0c-.048-.073-.1-.145-.146-.217s-.1-.143-.153-.214-.105-.141-.159-.212h0l-.164-.208h0q-.084-.1-.17-.2h0c-.058-.067-.117-.134-.177-.2h0l-.183-.2h0c-.062-.065-.125-.13-.189-.194h0c-.064-.064-.128-.127-.193-.189h0q-.1-.093-.2-.183h0c-.067-.06-.134-.119-.2-.177h0l-.2-.171h0q-.1-.084-.208-.165h0c-.07-.054-.14-.107-.211-.159h0l-.214-.153h0c-.072-.05-.144-.1-.217-.147h0c-.073-.048-.146-.1-.22-.141h0l-.222-.135q-.112-.066-.225-.129h0c-.075-.042-.151-.083-.227-.124s-.153-.079-.23-.117h0c-.077-.038-.154-.075-.232-.111h0l-.235-.105h0c-.078-.034-.158-.067-.237-.1h0c-.079-.032-.159-.062-.238-.093l-.24-.087h0c-.08-.028-.161-.055-.242-.081h0l-.244-.075-.245-.07q-.123-.033-.246-.063l-.248-.057h0l-.248-.051h0c-.083-.016-.167-.031-.25-.045h0c-.083-.014-.167-.027-.25-.039s-.167-.023-.251-.033l-.252-.027-.253-.022c-.084-.006-.168-.011-.252-.015h0l-.253-.009q-.126,0-.253,0c-.084,0-.168,0-.253,0h0l-.253.008q-.126.006-.252.014h0l-.252.02h0l-.252.026c-.084.009-.168.021-.251.033s-.167.024-.25.038h0c-.083.014-.166.028-.249.044h0c-.083.016-.166.032-.249.05h0l-.248.056c-.082.02-.165.041-.246.062s-.164.045-.245.069-.163.048-.244.074h0q-.122.038-.242.08h0c-.081.028-.161.056-.241.086h0c-.08.03-.16.061-.239.092l-.237.1c-.079.034-.157.069-.235.1l-.233.111h0l-.23.116h0c-.077.04-.153.081-.228.123s-.151.085-.226.129-.149.089-.223.134-.148.093-.22.141-.145.1-.217.147-.144.1-.215.153l-.211.159c-.07.054-.14.108-.209.164s-.137.113-.2.171l-.2.176c-.067.06-.133.121-.2.183l-.194.189-6.014,5.991-2.346-2.356-2.336-2.327ZM29.1,57.586,30.521,59l2.239,2.23,3.658-3.645c4.069-4.054,17.053-9.028,22.725,4.436,4.781,16.62,11.623,35.235,0,35.981H7c-12.879-1.1-4.99-19.871,0-36.174,6.257-13.192,18.245-8.086,22.1-4.243" transform="translate(0 -39.211)" fill="#df042e" fill-rule="evenodd"/>
    <path id="Path_539" data-name="Path 539" d="M90.245,2.425h.05a9.839,9.839,0,0,1,9.754,9.809V22.944a1.213,1.213,0,1,0,2.425,0V12.235q0-.3-.014-.594A12.275,12.275,0,0,0,90.306,0h-.061A12.275,12.275,0,0,0,78.03,11.642q-.014.3-.014.594v1.987a16.748,16.748,0,0,1,2.425.6V12.235a9.839,9.839,0,0,1,9.8-9.81" transform="translate(-57.466)" fill="#df042e" fill-rule="evenodd"/>
    <path id="Path_540" data-name="Path 540" d="M73.952,74.326a2.7,2.7,0,1,1-2.7,2.7,2.7,2.7,0,0,1,2.7-2.7" transform="translate(-52.486 -54.748)" fill="#df042e" fill-rule="evenodd"/>
    <path id="Path_541" data-name="Path 541" d="M159.126,84.85h0a1.515,1.515,0,0,1-1.51,1.51h-4.745a1.515,1.515,0,0,1-1.51-1.51h0a1.515,1.515,0,0,1,1.51-1.51h4.745a1.515,1.515,0,0,1,1.51,1.51" transform="translate(-111.492 -61.388)" fill="#df042e" fill-rule="evenodd"/>
  </g>
</svg>
