<?xml version="1.0" encoding="utf-8"?>
<!-- Generator: Adobe Illustrator 27.1.1, SVG Export Plug-In . SVG Version: 6.00 Build 0)  -->
<svg version="1.1" id="logo" xmlns="http://www.w3.org/2000/svg" xmlns:xlink="http://www.w3.org/1999/xlink" x="0px" y="0px"
	 viewBox="0 0 66 58.8" style="enable-background:new 0 0 66 58.8;" xml:space="preserve">
<style type="text/css">
	.st0{fill-rule:evenodd;clip-rule:evenodd;fill:#DF042E;}
</style>
<g>
	<path class="st0" d="M59.4,22.7c-3.3-7.8-9.1-9.4-14.1-8.6c1.5-18.7-26-18.7-24.5,0c0.2,0,0.4,0.1,0.7,0.1
		c-4.8-0.9-10.5,0.5-14.2,8.3c-5,16.3-12.9,35.1,0,36.2h52.1C71,57.9,64.2,39.3,59.4,22.7z M23.2,12.1C24.1-2.5,45,0.3,42.8,14.7
		c-4.5,1.3-6.9,4.3-9.8,7.2c-2.8-2.9-5.6-6-9.8-7.2V12.1z M57,27.3c-0.1,2-0.7,4.1-1.9,5.8C34.4,54.8,34,57.9,12.1,34.4
		C2,21.8,19.5,6.7,33,25.5c2.3-2.1,6.7-7.6,9.8-8.4v4.7c-2.5-0.7-4,2.5-1.2,3c0,0,4.7,0,4.7,0c2.8-0.5,1.4-3.7-1.1-3v-5.3
		C51.5,15.7,57.3,21,57,27.3z"/>
	<path class="st0" d="M21.7,19.5c-3.5-0.1-3.5,5.5,0,5.4C25.2,24.9,25.2,19.4,21.7,19.5z"/>
</g>
</svg>
