<svg xmlns="http://www.w3.org/2000/svg" xmlns:xlink="http://www.w3.org/1999/xlink" width="87.365" height="69.873" viewBox="0 0 87.365 69.873">
  <defs>
    <clipPath id="clip-path">
      <rect id="Rectangle_1258" data-name="Rectangle 1258" width="87.365" height="69.873" fill="none" stroke="#707070" stroke-width="3"/>
    </clipPath>
  </defs>
  <g id="step-2" transform="translate(0 0)">
    <g id="Group_234" data-name="Group 234" transform="translate(0 0)">
      <g id="Group_233" data-name="Group 233" clip-path="url(#clip-path)">
        <path id="Path_557" data-name="Path 557" d="M86.6,72.153H1.5a1.5,1.5,0,0,1-1.5-1.5V7.75a1.5,1.5,0,0,1,1.5-1.5H86.6a1.5,1.5,0,0,1,1.5,1.5v62.9A1.5,1.5,0,0,1,86.6,72.153Zm-37-3H85.1V9.25H3v59.9Z" transform="translate(-0.37 -1.91)" fill="#fff"/>
        <path id="Line_2" data-name="Line 2" d="M0,10.918a1.5,1.5,0,0,1-1.5-1.5V0A1.5,1.5,0,0,1,0-1.5,1.5,1.5,0,0,1,1.5,0V9.418A1.5,1.5,0,0,1,0,10.918Z" transform="translate(21.647 1.13)" fill="#fff"/>
        <path id="Line_3" data-name="Line 3" d="M0,10.918a1.5,1.5,0,0,1-1.5-1.5V0A1.5,1.5,0,0,1,0-1.5,1.5,1.5,0,0,1,1.5,0V9.418A1.5,1.5,0,0,1,0,10.918Z" transform="translate(43.682 1.13)" fill="#fff"/>
        <path id="Line_4" data-name="Line 4" d="M0,10.918a1.5,1.5,0,0,1-1.5-1.5V0A1.5,1.5,0,0,1,0-1.5,1.5,1.5,0,0,1,1.5,0V9.418A1.5,1.5,0,0,1,0,10.918Z" transform="translate(65.718 1.13)" fill="#fff"/>
      </g>
    </g>
    <path id="Rectangle_1259" data-name="Rectangle 1259" d="M0-1.5H64.076a1.5,1.5,0,0,1,1.5,1.5V12.1a1.5,1.5,0,0,1-1.5,1.5H0a1.5,1.5,0,0,1-1.5-1.5V0A1.5,1.5,0,0,1,0-1.5Zm62.576,3H1.5v9.1H62.576Z" transform="translate(11.644 17.289)" fill="#fff"/>
    <path id="Line_5" data-name="Line 5" d="M14.133,1.5H0A1.5,1.5,0,0,1-1.5,0,1.5,1.5,0,0,1,0-1.5H14.133a1.5,1.5,0,0,1,1.5,1.5A1.5,1.5,0,0,1,14.133,1.5Z" transform="translate(11.644 38.942)" fill="#fff"/>
    <path id="Line_6" data-name="Line 6" d="M14.133,1.5H0A1.5,1.5,0,0,1-1.5,0,1.5,1.5,0,0,1,0-1.5H14.133a1.5,1.5,0,0,1,1.5,1.5A1.5,1.5,0,0,1,14.133,1.5Z" transform="translate(11.644 47.191)" fill="#fff"/>
    <path id="Line_7" data-name="Line 7" d="M14.133,1.5H0A1.5,1.5,0,0,1-1.5,0,1.5,1.5,0,0,1,0-1.5H14.133a1.5,1.5,0,0,1,1.5,1.5A1.5,1.5,0,0,1,14.133,1.5Z" transform="translate(11.644 55.44)" fill="#fff"/>
    <path id="Line_8" data-name="Line 8" d="M14.133,1.5H0A1.5,1.5,0,0,1-1.5,0,1.5,1.5,0,0,1,0-1.5H14.133a1.5,1.5,0,0,1,1.5,1.5A1.5,1.5,0,0,1,14.133,1.5Z" transform="translate(35.62 38.942)" fill="#fff"/>
    <path id="Line_9" data-name="Line 9" d="M14.133,1.5H0A1.5,1.5,0,0,1-1.5,0,1.5,1.5,0,0,1,0-1.5H14.133a1.5,1.5,0,0,1,1.5,1.5A1.5,1.5,0,0,1,14.133,1.5Z" transform="translate(35.62 47.191)" fill="#fff"/>
    <path id="Line_10" data-name="Line 10" d="M14.133,1.5H0A1.5,1.5,0,0,1-1.5,0,1.5,1.5,0,0,1,0-1.5H14.133a1.5,1.5,0,0,1,1.5,1.5A1.5,1.5,0,0,1,14.133,1.5Z" transform="translate(35.62 55.44)" fill="#fff"/>
    <path id="Line_11" data-name="Line 11" d="M14.133,1.5H0A1.5,1.5,0,0,1-1.5,0,1.5,1.5,0,0,1,0-1.5H14.133a1.5,1.5,0,0,1,1.5,1.5A1.5,1.5,0,0,1,14.133,1.5Z" transform="translate(59.596 38.942)" fill="#fff"/>
    <path id="Line_12" data-name="Line 12" d="M14.133,1.5H0A1.5,1.5,0,0,1-1.5,0,1.5,1.5,0,0,1,0-1.5H14.133a1.5,1.5,0,0,1,1.5,1.5A1.5,1.5,0,0,1,14.133,1.5Z" transform="translate(59.596 47.191)" fill="#fff"/>
    <path id="Line_13" data-name="Line 13" d="M14.133,1.5H0A1.5,1.5,0,0,1-1.5,0,1.5,1.5,0,0,1,0-1.5H14.133a1.5,1.5,0,0,1,1.5,1.5A1.5,1.5,0,0,1,14.133,1.5Z" transform="translate(59.596 55.44)" fill="#fff"/>
  </g>
</svg>
