<svg xmlns="http://www.w3.org/2000/svg" width="87.075" height="87.075" viewBox="0 0 87.075 87.075">
  <g id="step-4" transform="translate(0.757 0.757)">
    <path id="Path_564" data-name="Path 564" d="M31.236,84.9a1.5,1.5,0,0,1-.421-.06A43.559,43.559,0,0,1,26.091,2.922,43.266,43.266,0,0,1,43.037-.5h1.827a1.5,1.5,0,0,1,0,3H43.037A40.544,40.544,0,0,0,31.656,81.956a1.5,1.5,0,0,1-.42,2.94Z" transform="translate(-0.257 -0.257)" fill="#fff"/>
    <path id="Path_565" data-name="Path 565" d="M56.871,87.153H55.044a1.5,1.5,0,0,1,0-3h1.827A40.544,40.544,0,0,0,68.253,4.7a1.5,1.5,0,0,1,.841-2.88,43.559,43.559,0,0,1,4.725,81.914A43.266,43.266,0,0,1,56.871,87.153Z" transform="translate(-14.09 -0.834)" fill="#fff"/>
    <path id="Path_566" data-name="Path 566" d="M38.36,111.727H25.565a1.5,1.5,0,0,1,0-3H35.932l-4.4-8.8a1.5,1.5,0,1,1,2.683-1.342L39.7,109.556a1.5,1.5,0,0,1-1.342,2.171Z" transform="translate(-6.545 -25.409)" fill="#fff"/>
    <path id="Path_567" data-name="Path 567" d="M77.723,13.467a1.5,1.5,0,0,1-1.343-.829L70.9,1.671A1.5,1.5,0,0,1,72.239-.5H85.033a1.5,1.5,0,0,1,0,3H74.666l4.4,8.8a1.5,1.5,0,0,1-1.34,2.171Z" transform="translate(-18.492 -0.257)" fill="#fff"/>
    <path id="Path_568" data-name="Path 568" d="M70.688,75.8H30.479a1.5,1.5,0,0,1-1.5-1.5V44.577a1.5,1.5,0,0,1,1.5-1.5H70.688a1.5,1.5,0,0,1,1.5,1.5V74.3A1.5,1.5,0,0,1,70.688,75.8Zm-17.482-3H69.188V46.077H31.979V72.8Z" transform="translate(-7.802 -11.411)" fill="#fff"/>
    <path id="Path_569" data-name="Path 569" d="M64.381,42.468a1.5,1.5,0,0,1-1.5-1.5,8.99,8.99,0,0,0-17.979,0,1.5,1.5,0,0,1-3,0,11.99,11.99,0,0,1,23.979,0A1.5,1.5,0,0,1,64.381,42.468Z" transform="translate(-11.111 -7.803)" fill="#fff"/>
    <rect id="Rectangle_1261" data-name="Rectangle 1261" width="85" height="85" transform="translate(0.281 0.281)" fill="none"/>
  </g>
</svg>
