<svg xmlns="http://www.w3.org/2000/svg" xmlns:xlink="http://www.w3.org/1999/xlink" width="92.528" height="89.449" viewBox="0 0 92.528 89.449">
  <defs>
    <clipPath id="clip-path">
      <rect id="Rectangle_1260" data-name="Rectangle 1260" width="92.528" height="89.449" fill="none"/>
    </clipPath>
  </defs>
  <g id="step-3" transform="translate(0 0)">
    <g id="Group_236" data-name="Group 236" transform="translate(0 0)" clip-path="url(#clip-path)">
      <path id="Path_558" data-name="Path 558" d="M46.79,87.725v-.489H15.717l-.1-.12c-2.758-3.769-2.895-9.206-.433-17.609.2-.7.385-1.475.561-2.366l.048-.233.233-.016a14.854,14.854,0,0,0,6.656-1.957l.257-.144.152.249a3.955,3.955,0,0,0,3.344,1.9H40.511a3.932,3.932,0,0,0,3.921-3.921V54.575a1.709,1.709,0,0,1,1.708-1.708h2.815a1.715,1.715,0,0,1,1.708,1.708v1.115h6.96A17.917,17.917,0,0,0,53,53.941l-.184-.04-.04-.184a3.949,3.949,0,0,0-3.817-3.063H46.14a3.921,3.921,0,0,0-3.681,2.614l-.072.2H40.511A1.7,1.7,0,0,1,38.8,51.76V46.339l.2-.072a16.583,16.583,0,0,0,10.8-12.846l.048-.257h.505a5.254,5.254,0,0,0,2.662-.738l.457-.265V48.945a1.107,1.107,0,1,0,2.213,0V22.211A22.254,22.254,0,0,0,31.891.055C20.32.856,11.258,10.832,11.258,22.772V63.019A3.917,3.917,0,0,0,13.4,66.491l.2.1-.04.217c-.16.794-.321,1.475-.5,2.077-1.6,5.461-3.071,12.429-.233,17.914l.233.433H2.213V71.462A15.817,15.817,0,0,1,7.441,59.731,1.108,1.108,0,0,0,6.76,57.8H6.7a1.086,1.086,0,0,0-.738.281A18.037,18.037,0,0,0,0,71.462v16.88a1.1,1.1,0,0,0,1.107,1.107H65.835a1.1,1.1,0,0,0,1.107-1.107v-.617Zm3.568-56.773h-.3V26.132h2.9l.088.152a3.1,3.1,0,0,1-2.694,4.667M13.472,63.019V22.772c0-10.777,8.163-19.791,18.572-20.512A20.046,20.046,0,0,1,47.608,8.081a19.808,19.808,0,0,1,5.87,14.129v1.708H46.14a4.543,4.543,0,0,1-2.261-.6,1.069,1.069,0,0,0-.842-.112,1.085,1.085,0,0,0-.674.513,1.14,1.14,0,0,0-.112.842,1.169,1.169,0,0,0,.513.674,6.816,6.816,0,0,0,3.376.9h1.708v4.523a14.389,14.389,0,0,1-14.378,14.37,1.107,1.107,0,0,0,0,2.213,16.465,16.465,0,0,0,2.766-.249l.353-.056V51.76a3.922,3.922,0,0,0,3.921,3.921h1.708v7.337a1.715,1.715,0,0,1-1.708,1.708H26.438a1.7,1.7,0,0,1-1.548-1.034l-.088-.208.168-.144A15.151,15.151,0,0,0,30.359,51.76a18.109,18.109,0,0,0-7.193-14.394A10.182,10.182,0,0,1,19.1,29.243v-1.4a1.715,1.715,0,0,1,1.708-1.708H34.882A6.745,6.745,0,0,0,41.618,19.4a1.107,1.107,0,0,0-2.213,0,4.528,4.528,0,0,1-4.523,4.523H20.809a3.927,3.927,0,0,0-3.921,3.921v1.4a12.438,12.438,0,0,0,4.948,9.9A15.841,15.841,0,0,1,28.146,51.76,12.977,12.977,0,0,1,15.18,64.727a1.715,1.715,0,0,1-1.708-1.708" transform="translate(0 0)" fill="#fcfcfc"/>
      <path id="Path_558_-_Outline" data-name="Path 558 - Outline" d="M65.835,89.824H1.107A1.483,1.483,0,0,1-.375,88.342V71.462A18.418,18.418,0,0,1,5.715,57.8a1.455,1.455,0,0,1,.989-.377H6.78a1.482,1.482,0,0,1,.911,2.587,15.442,15.442,0,0,0-5.1,11.452v15.4h9.85c-2.826-5.594-1.346-12.593.264-18.078.16-.547.317-1.2.477-1.984a4.284,4.284,0,0,1-2.3-3.78V22.772C10.883,10.639,20.1.5,31.865-.319c.525-.037,1.058-.055,1.583-.055A22.63,22.63,0,0,1,56.066,22.211V48.945a1.482,1.482,0,1,1-2.963,0V32.811a5.594,5.594,0,0,1-2.744.728h-.193A16.952,16.952,0,0,1,39.178,46.6V51.76a1.335,1.335,0,0,0,1.333,1.333h1.613a4.292,4.292,0,0,1,4.016-2.815h2.815a4.327,4.327,0,0,1,4.172,3.308A18.287,18.287,0,0,1,57.8,55.36l-.18.7H50.288v-1.49a1.335,1.335,0,0,0-1.333-1.333H46.14a1.335,1.335,0,0,0-1.333,1.333v8.444a4.3,4.3,0,0,1-4.3,4.3H26.438a4.327,4.327,0,0,1-3.627-2.02,15.2,15.2,0,0,1-6.7,1.968c-.176.882-.359,1.651-.559,2.346-2.42,8.259-2.312,13.582.351,17.251H47.165v.489H67.316v.992A1.483,1.483,0,0,1,65.835,89.824ZM6.7,58.173a.71.71,0,0,0-.484.182A17.669,17.669,0,0,0,.375,71.462v16.88a.732.732,0,0,0,.732.732H65.835a.732.732,0,0,0,.732-.732V88.1H46.415V87.61H15.537l-.219-.274c-2.837-3.876-2.988-9.408-.49-17.936.2-.686.378-1.45.553-2.333l.106-.514.522-.036A14.465,14.465,0,0,0,22.5,64.61l.574-.323.341.557a3.575,3.575,0,0,0,3.024,1.721H40.511a3.55,3.55,0,0,0,3.546-3.546V54.575a2.085,2.085,0,0,1,2.083-2.083h2.815a2.085,2.085,0,0,1,2.083,2.083v.74H56a17.743,17.743,0,0,0-3.089-1.008l-.416-.09-.091-.42a3.57,3.57,0,0,0-3.451-2.768H46.14a3.541,3.541,0,0,0-3.327,2.364l-.162.45h-2.14a2.085,2.085,0,0,1-2.083-2.083V46.076l.448-.161A16.2,16.2,0,0,0,49.435,33.359v-.007l.105-.562h.816a4.877,4.877,0,0,0,2.474-.687l1.02-.591V48.945a.732.732,0,1,0,1.463,0V22.211A21.88,21.88,0,0,0,33.448.375c-.508,0-1.023.018-1.531.053-11.374.788-20.284,10.6-20.284,22.343V63.019a3.539,3.539,0,0,0,1.939,3.139l.447.233-.092.5c-.171.848-.332,1.518-.5,2.108-1.582,5.386-3.041,12.258-.261,17.634l.528.983H1.838V71.462A16.194,16.194,0,0,1,7.19,59.452a.733.733,0,0,0-.442-1.279ZM40.511,65.1H26.438a2.074,2.074,0,0,1-1.891-1.26l-.2-.465.376-.323A14.769,14.769,0,0,0,29.984,51.76a17.728,17.728,0,0,0-7.043-14.094,10.569,10.569,0,0,1-4.215-8.423v-1.4a2.085,2.085,0,0,1,2.083-2.083H34.882A6.368,6.368,0,0,0,41.243,19.4a.732.732,0,1,0-1.463,0,4.9,4.9,0,0,1-4.9,4.9H20.809a3.55,3.55,0,0,0-3.546,3.546v1.4a12.063,12.063,0,0,0,4.8,9.6A16.212,16.212,0,0,1,28.521,51.76,13.357,13.357,0,0,1,15.18,65.1,2.085,2.085,0,0,1,13.1,63.019V22.772C13.1,11.8,21.408,2.621,32.017,1.886c.463-.031.932-.047,1.4-.047a20.428,20.428,0,0,1,7.831,1.549A20.418,20.418,0,0,1,53.853,22.211v2.083H46.14a4.908,4.908,0,0,1-2.449-.652.694.694,0,0,0-.554-.076l-.009,0a.711.711,0,0,0-.44.337.76.76,0,0,0-.075.557.79.79,0,0,0,.342.448,6.452,6.452,0,0,0,3.185.846h2.083v4.9A14.765,14.765,0,0,1,33.471,45.4a.732.732,0,1,0,0,1.463,16.082,16.082,0,0,0,2.7-.243l.79-.126V51.76a3.55,3.55,0,0,0,3.546,3.546h2.083v7.712A2.085,2.085,0,0,1,40.511,65.1ZM25.256,63.589a1.32,1.32,0,0,0,1.183.762H40.511a1.335,1.335,0,0,0,1.333-1.333V56.056H40.511a4.3,4.3,0,0,1-4.3-4.3V47.373a16.709,16.709,0,0,1-2.744.24,1.482,1.482,0,1,1,0-2.963,14.015,14.015,0,0,0,14-13.995V26.507H46.14a7.2,7.2,0,0,1-3.562-.947l-.01-.006a1.538,1.538,0,0,1-.678-.89l0-.012a1.518,1.518,0,0,1,.149-1.117l0-.008a1.485,1.485,0,0,1,2.029-.532,4.153,4.153,0,0,0,2.07.549H53.1V22.211A19.432,19.432,0,0,0,47.343,8.347,19.78,19.78,0,0,0,33.413,2.589c-.446,0-.9.015-1.344.045-10.218.708-18.222,9.554-18.222,20.138V63.019a1.335,1.335,0,0,0,1.333,1.333A12.606,12.606,0,0,0,27.771,51.76a15.458,15.458,0,0,0-6.161-12.321,12.817,12.817,0,0,1-5.1-10.2v-1.4a4.3,4.3,0,0,1,4.3-4.3H34.882A4.152,4.152,0,0,0,39.03,19.4a1.482,1.482,0,1,1,2.963,0,7.119,7.119,0,0,1-7.111,7.111H20.809a1.335,1.335,0,0,0-1.333,1.333v1.4a9.816,9.816,0,0,0,3.915,7.823A18.482,18.482,0,0,1,30.734,51.76,15.516,15.516,0,0,1,25.256,63.589Zm25.1-32.263h-.672V25.757h3.494l.2.339a3.475,3.475,0,0,1-3.019,5.23Zm.078-4.819v4.068a2.724,2.724,0,0,0,2.311-4.068Z" transform="translate(0 0)" fill="#fff"/>
      <path id="Path_559" data-name="Path 559" d="M33.805,34.447v1.4a1.107,1.107,0,1,1-2.213,0v-1.4a1.107,1.107,0,1,1,2.213,0" transform="translate(-6.259 -6.605)" fill="#fcfcfc"/>
      <path id="Path_560" data-name="Path 560" d="M51.355,34.447v1.4a1.107,1.107,0,1,1-2.213,0v-1.4a1.107,1.107,0,0,1,2.213,0" transform="translate(-9.736 -6.605)" fill="#fcfcfc"/>
      <path id="Path_561" data-name="Path 561" d="M103.18,103.635H59.838a1.5,1.5,0,0,1-1.5-1.5V70.108a1.5,1.5,0,0,1,1.5-1.5H103.18a1.5,1.5,0,0,1,1.5,1.5v32.027A1.5,1.5,0,0,1,103.18,103.635Zm-41.842-3H101.68V71.608H61.338Z" transform="translate(-11.855 -13.89)" fill="#fff"/>
      <path id="Path_562" data-name="Path 562" d="M95.377,68.813a1.5,1.5,0,0,1-1.5-1.5,9.805,9.805,0,0,0-19.611,0,1.5,1.5,0,0,1-3,0,12.805,12.805,0,0,1,25.611,0A1.5,1.5,0,0,1,95.377,68.813Z" transform="translate(-14.416 -11.096)" fill="#fff"/>
      <path id="Path_563" data-name="Path 563" d="M41.022,48.614a3.91,3.91,0,0,1-3.906-3.905,1,1,0,0,1,2,0,1.906,1.906,0,0,0,3.811,0,1,1,0,0,1,2,0A3.91,3.91,0,0,1,41.022,48.614Z" transform="translate(-7.551 -8.858)" fill="#fff"/>
    </g>
  </g>
</svg>
