<svg xmlns="http://www.w3.org/2000/svg" width="86.118" height="86.119" viewBox="0 0 86.118 86.119">
  <g id="step-1" transform="translate(0.384 0.384)">
    <path id="Path_553" data-name="Path 553" d="M84.618,93.568H1.5a1.5,1.5,0,0,1-1.5-1.5V30.633a1.5,1.5,0,0,1,1.5-1.5H84.618a1.5,1.5,0,0,1,1.5,1.5V92.068A1.5,1.5,0,0,1,84.618,93.568Zm-36.139-3H83.118V32.133H3V90.568Z" transform="translate(-0.384 -7.833)" fill="#fff"/>
    <path id="Path_554" data-name="Path 554" d="M71.571,24.683a1.5,1.5,0,0,1-1.5-1.5,20.183,20.183,0,1,0-40.366,0,1.5,1.5,0,1,1-3,0,23.183,23.183,0,1,1,46.366,0A1.5,1.5,0,0,1,71.571,24.683Z" transform="translate(-7.212 -0.384)" fill="#fff"/>
    <path id="Path_555" data-name="Path 555" d="M44.535,40.776a7.258,7.258,0,0,1,3.213.745,4.327,4.327,0,0,0,3.8,0,7.322,7.322,0,0,1,9.688,3.148A4.3,4.3,0,0,0,64.31,46.9,7.325,7.325,0,0,1,70.3,55.145a4.3,4.3,0,0,0,1.174,3.613,7.325,7.325,0,0,1,0,10.187A4.3,4.3,0,0,0,70.3,72.559,7.325,7.325,0,0,1,64.31,80.8a4.3,4.3,0,0,0-3.074,2.234,7.322,7.322,0,0,1-9.688,3.148,4.327,4.327,0,0,0-3.8,0,7.322,7.322,0,0,1-9.688-3.148A4.3,4.3,0,0,0,34.986,80.8,7.325,7.325,0,0,1,29,72.559a4.3,4.3,0,0,0-1.174-3.613,7.325,7.325,0,0,1,0-10.187A4.3,4.3,0,0,0,29,55.145,7.325,7.325,0,0,1,34.986,46.9,4.3,4.3,0,0,0,38.06,44.67,7.314,7.314,0,0,1,44.535,40.776Zm5.113,4.185a7.368,7.368,0,0,1-3.217-.744,4.322,4.322,0,0,0-5.721,1.859A7.33,7.33,0,0,1,35.5,49.858a4.308,4.308,0,0,0-3.536,4.867,7.327,7.327,0,0,1-1.988,6.119,4.308,4.308,0,0,0,0,6.016,7.327,7.327,0,0,1,1.988,6.119A4.308,4.308,0,0,0,35.5,77.845a7.328,7.328,0,0,1,5.206,3.782,4.322,4.322,0,0,0,5.721,1.86,7.327,7.327,0,0,1,6.434,0,4.322,4.322,0,0,0,5.721-1.859,7.328,7.328,0,0,1,5.206-3.782,4.308,4.308,0,0,0,3.536-4.867,7.327,7.327,0,0,1,1.988-6.119,4.308,4.308,0,0,0,0-6.016,7.327,7.327,0,0,1-1.988-6.119,4.308,4.308,0,0,0-3.536-4.867,7.329,7.329,0,0,1-5.206-3.782,4.322,4.322,0,0,0-5.721-1.86A7.368,7.368,0,0,1,49.648,44.961Z" transform="translate(-6.972 -10.811)" fill="#fff"/>
    <path id="Path_556" data-name="Path 556" d="M48.935,78.371a1.5,1.5,0,0,1-1.061-.439l-9.357-9.357a1.5,1.5,0,1,1,2.121-2.121l8.3,8.3,16.019-16.02a1.5,1.5,0,1,1,2.121,2.121L50,77.931A1.5,1.5,0,0,1,48.935,78.371Z" transform="translate(-10.121 -15.289)" fill="#fff"/>
    <rect id="Rectangle_1257" data-name="Rectangle 1257" width="85.351" height="85.351" fill="none"/>
  </g>
</svg>
